<svg xmlns="http://www.w3.org/2000/svg" viewBox="0 0 800 350" width="100%" height="350">
  <defs>
    <!-- Background Gradient -->
    <linearGradient id="bg-grad" x1="0%" y1="0%" x2="100%" y2="100%">
      <stop offset="0%" stop-color="#07090e" />
      <stop offset="50%" stop-color="#0f1422" />
      <stop offset="100%" stop-color="#181125" />
    </linearGradient>

    <!-- Name/Text Gradient -->
    <linearGradient id="title-grad" x1="0%" y1="0%" x2="100%" y2="0%">
      <stop offset="0%" stop-color="#00F2FE" />
      <stop offset="35%" stop-color="#4FACFE" />
      <stop offset="70%" stop-color="#A259FF" />
      <stop offset="100%" stop-color="#F355DA" />
    </linearGradient>

    <!-- Meta Gradient -->
    <linearGradient id="meta-grad" x1="0%" y1="0%" x2="100%" y2="100%">
      <stop offset="0%" stop-color="#0064E0" />
      <stop offset="60%" stop-color="#0080FF" />
      <stop offset="100%" stop-color="#00F2FE" />
    </linearGradient>

    <!-- Fading Line Gradient -->
    <linearGradient id="line-grad" x1="0%" y1="0%" x2="100%" y2="0%">
      <stop offset="0%" stop-color="#1e293b" stop-opacity="0" />
      <stop offset="15%" stop-color="#1e293b" stop-opacity="0.65" />
      <stop offset="85%" stop-color="#1e293b" stop-opacity="0.65" />
      <stop offset="100%" stop-color="#1e293b" stop-opacity="0" />
    </linearGradient>

    <!-- Glow Filter -->
    <filter id="glow" x="-20%" y="-20%" width="140%" height="140%">
      <feGaussianBlur stdDeviation="8" result="blur" />
      <feMerge>
        <feMergeNode in="blur" />
        <feMergeNode in="SourceGraphic" />
      </feMerge>
    </filter>

    <!-- Subtle Icon Glow -->
    <filter id="icon-glow" x="-30%" y="-30%" width="160%" height="160%">
      <feGaussianBlur stdDeviation="3" result="blur" />
      <feComposite in="SourceGraphic" in2="blur" operator="over" />
    </filter>
  </defs>

  <style>
    /* Background Elements */
    .bg { fill: url(#bg-grad); }
    
    /* Nodes and Circuit Path Animation */
    .network-path {
      stroke: url(#line-grad);
      stroke-width: 1.2;
      stroke-dasharray: 8,4;
      animation: dash 30s linear infinite;
    }
    @keyframes dash {
      to { stroke-dashoffset: -360; }
    }

    .network-node {
      fill: #1e293b;
      animation: node-pulse 4s ease-in-out infinite alternate;
    }
    .node-glow {
      fill: #4FACFE;
      opacity: 0.25;
      animation: node-pulse 3s ease-in-out infinite alternate;
    }
    @keyframes node-pulse {
      0% { opacity: 0.15; transform: scale(0.9); }
      100% { opacity: 0.45; transform: scale(1.15); }
    }

    /* Floating Particles */
    .particle {
      fill: #4FACFE;
      opacity: 0.3;
      animation: float-particle 12s linear infinite;
    }
    .particle-pink {
      fill: #F355DA;
    }
    .p-1 { animation-duration: 10s; animation-delay: 0s; }
    .p-2 { animation-duration: 14s; animation-delay: -3s; }
    .p-3 { animation-duration: 8s; animation-delay: -5s; }
    .p-4 { animation-duration: 16s; animation-delay: -2s; }
    
    @keyframes float-particle {
      0% { transform: translateY(370px) translateX(0); opacity: 0; }
      10% { opacity: 0.4; }
      90% { opacity: 0.4; }
      100% { transform: translateY(-20px) translateX(25px); opacity: 0; }
    }

    /* Typography Styles */
    .title-glow {
      font-family: 'Inter', -apple-system, BlinkMacSystemFont, 'Segoe UI', Roboto, sans-serif;
      font-size: 50px;
      font-weight: 900;
      letter-spacing: 9px;
      text-anchor: middle;
      fill: url(#title-grad);
      filter: url(#glow);
      animation: glow-breath 3.5s ease-in-out infinite alternate;
    }
    .title-main {
      font-family: 'Inter', -apple-system, BlinkMacSystemFont, 'Segoe UI', Roboto, sans-serif;
      font-size: 50px;
      font-weight: 900;
      letter-spacing: 9px;
      text-anchor: middle;
      fill: url(#title-grad);
    }
    @keyframes glow-breath {
      0% { opacity: 0.35; filter: drop-shadow(0 0 5px rgba(0,242,254,0.3)); }
      100% { opacity: 0.9; filter: drop-shadow(0 0 15px rgba(243,85,218,0.7)); }
    }

    .subtitle {
      font-family: 'Inter', -apple-system, BlinkMacSystemFont, 'Segoe UI', Roboto, sans-serif;
      font-size: 13.5px;
      font-weight: 600;
      letter-spacing: 7px;
      fill: #8E9BB0;
      text-anchor: middle;
      animation: fadeIn 2s ease-out;
    }

    /* Floating bobbing applied to inner group */
    .icon-group {
      animation: float-icon 4.2s ease-in-out infinite;
    }
    @keyframes float-icon {
      0%, 100% { transform: translateY(0); }
      50% { transform: translateY(-7px); }
    }

    /* Staggered bobbing delay */
    .g-1 { animation-delay: 0.0s; }
    .g-2 { animation-delay: 0.3s; }
    .g-3 { animation-delay: 0.6s; }
    .g-4 { animation-delay: 0.9s; }
    .g-5 { animation-delay: 1.2s; }
    .g-6 { animation-delay: 1.5s; }
    .g-7 { animation-delay: 1.8s; }
    .g-8 { animation-delay: 2.1s; }
    .g-9 { animation-delay: 2.4s; }
    .g-10 { animation-delay: 2.7s; }
    .g-11 { animation-delay: 3.0s; }

    /* Centered hover scale for innermost group */
    .icon-content {
      transition: transform 0.25s cubic-bezier(0.175, 0.885, 0.32, 1.275);
      transform-origin: 0px 0px;
    }
    .icon-group:hover {
      cursor: pointer;
    }
    .icon-group:hover .icon-content {
      transform: scale(1.15);
    }
    .icon-group:hover .icon-bg {
      stroke: #4FACFE;
      fill: #1C2333;
      filter: url(#icon-glow);
    }
    .icon-bg {
      fill: #111520;
      stroke: #262E40;
      stroke-width: 1.5;
      transition: all 0.3s ease;
    }
  </style>

  <!-- Solid background covering the entire viewBox -->
  <rect x="-10" y="-10" width="820" height="370" class="bg" />

  <!-- Network Circuit Lines (Fade out at borders using linear gradient stroke) -->
  <g fill="none">
    <path class="network-path" d="M -50,60 L 150,40 L 220,110 L 120,190 L 320,210 L 400,120 L 520,200 L 680,120 L 720,40 L 850,70" />
    <path class="network-path" d="M 50,300 L 140,240 L 280,260 L 350,150 L 480,110 L 590,240 L 750,290" />
  </g>

  <!-- Animated Network Nodes -->
  <g>
    <circle cx="150" cy="40" r="3" class="network-node" />
    <circle cx="150" cy="40" r="7" class="node-glow" />
    
    <circle cx="220" cy="110" r="3" class="network-node" />
    
    <circle cx="400" cy="120" r="4" class="network-node" />
    <circle cx="400" cy="120" r="9" class="node-glow" />
    
    <circle cx="680" cy="120" r="3" class="network-node" />
    
    <circle cx="720" cy="40" r="3.5" class="network-node" />
    <circle cx="720" cy="40" r="8" class="node-glow" />

    <circle cx="350" cy="150" r="3" class="network-node" />
    <circle cx="480" cy="110" r="3" class="network-node" />
  </g>

  <!-- Floating Particles in Background -->
  <circle cx="180" cy="0" r="2.5" class="particle p-1" />
  <circle cx="280" cy="0" r="1.5" class="particle p-2" />
  <circle cx="580" cy="0" r="3" class="particle particle-pink p-3" />
  <circle cx="680" cy="0" r="2" class="particle p-4" />
  <circle cx="110" cy="0" r="2" class="particle particle-pink p-2" />
  <circle cx="490" cy="0" r="1.5" class="particle p-1" />

  <!-- Centered Name and Glowing Text -->
  <g transform="translate(0, 10)">
    <text class="title-glow" x="400" y="130">DANIEL SANTANA</text>
    <text class="title-main" x="400" y="130">DANIEL SANTANA</text>
    <text class="subtitle" x="400" y="175">DEVELOPER &amp; MARKETING SPECIALIST</text>
  </g>

  <!-- ==================== ICONS ROW ==================== -->
  
  <!-- JS Icon (1) -->
  <g transform="translate(110, 265)">
    <g class="icon-group g-1">
      <g class="icon-content">
        <rect class="icon-bg" x="-24" y="-24" width="48" height="48" rx="12" />
        <rect x="-13" y="-13" width="26" height="26" rx="2" fill="#F7DF1E" />
        <text x="10" y="10" font-family="'Arial Black', Arial, sans-serif" font-weight="900" font-size="11" fill="#000" text-anchor="end">JS</text>
      </g>
    </g>
  </g>

  <!-- TS Icon (2) -->
  <g transform="translate(168, 265)">
    <g class="icon-group g-2">
      <g class="icon-content">
        <rect class="icon-bg" x="-24" y="-24" width="48" height="48" rx="12" />
        <rect x="-13" y="-13" width="26" height="26" rx="2" fill="#3178C6" />
        <text x="10" y="10" font-family="'Arial Black', Arial, sans-serif" font-weight="900" font-size="11" fill="#FFF" text-anchor="end">TS</text>
      </g>
    </g>
  </g>

  <!-- React Icon (3) -->
  <g transform="translate(226, 265)">
    <g class="icon-group g-3">
      <g class="icon-content">
        <rect class="icon-bg" x="-24" y="-24" width="48" height="48" rx="12" />
        <g stroke="#61DAFB" stroke-width="1.5" fill="none" transform="scale(1.2)">
          <ellipse rx="10" ry="3.8" />
          <ellipse rx="10" ry="3.8" transform="rotate(60)" />
          <ellipse rx="10" ry="3.8" transform="rotate(120)" />
          <circle r="1.8" fill="#61DAFB" stroke="none" />
        </g>
      </g>
    </g>
  </g>

  <!-- Next.js Icon (4) -->
  <g transform="translate(284, 265)">
    <g class="icon-group g-4">
      <g class="icon-content">
        <rect class="icon-bg" x="-24" y="-24" width="48" height="48" rx="12" />
        <g transform="scale(1.1)">
          <circle r="12" fill="#000" stroke="#444" stroke-width="0.8" />
          <path d="M-4.5,5 L-4.5,-5 L3.2,4.4 M3.2,-5 L3.2,5" stroke="#FFF" stroke-width="1.8" stroke-linecap="round" stroke-linejoin="round" fill="none" />
        </g>
      </g>
    </g>
  </g>

  <!-- Node.js Icon (5) -->
  <g transform="translate(342, 265)">
    <g class="icon-group g-5">
      <g class="icon-content">
        <rect class="icon-bg" x="-24" y="-24" width="48" height="48" rx="12" />
        <g transform="scale(1.1)">
          <path d="M0,-12 L10.4,-6 L10.4,6 L0,12 L-10.4,6 L-10.4,-6 Z" fill="#339933" />
          <path d="M0,-12 L0,12 M0,0 L10.4,-6 M-10.4,-6 L0,0" stroke="#FFF" stroke-width="1.2" stroke-linecap="round" fill="none" opacity="0.6" />
        </g>
      </g>
    </g>
  </g>

  <!-- PostgreSQL Icon (6) -->
  <g transform="translate(400, 265)">
    <g class="icon-group g-6">
      <g class="icon-content">
        <rect class="icon-bg" x="-24" y="-24" width="48" height="48" rx="12" />
        <g transform="translate(0, 1) scale(1.0)">
          <path d="M-10,0 C-10,-8 -5,-12 3,-12 C8,-12 12,-8 12,-2 C12,4 7,8 5,9 C3,10 1,11 -1,11 C-5,11 -10,6 -10,0 Z" fill="#336791" />
          <path d="M-12,5 C-12,2 -9,2 -8,4 C-9,5 -10,7 -12,5 Z" fill="#FFFFFF"/>
          <path d="M4,-12 C1,-12 -2,-7 -2,-2 C-2,3 1,6 4,6 C7,6 9,3 9,-2 C9,-7 7,-12 4,-12 Z" fill="#2C5980" />
          <circle cx="-1.5" cy="-4.5" r="1.2" fill="#FFF" />
          <path d="M-10,0 C-12,1 -14,3 -14,6 C-14,9 -12,10 -10,9 C-9,8.5 -8,8 -8,6" fill="none" stroke="#336791" stroke-width="2.5" stroke-linecap="round"/>
        </g>
      </g>
    </g>
  </g>

  <!-- MongoDB Icon (7) -->
  <g transform="translate(458, 265)">
    <g class="icon-group g-7">
      <g class="icon-content">
        <rect class="icon-bg" x="-24" y="-24" width="48" height="48" rx="12" />
        <g transform="scale(1.15)">
          <path d="M0,-11 C3,-7 6,-3 6,2 C6,6 3,9 0,11 Z" fill="#47A248" />
          <path d="M0,-11 C-3,-7 -6,-3 -6,2 C-6,6 -3,9 0,11 Z" fill="#13AA52" />
          <path d="M0,-11 C-0.5,-7 -1,-3 -1,2 C-1,6 -0.5,9 0,11 C0.5,9 1,6 1,2 C1,-3 0.5,-7 0,-11" fill="#3F3F3F" opacity="0.3" />
          <path d="M0,-11 L0,11" stroke="#3F3F3F" stroke-width="0.8" opacity="0.4" />
        </g>
      </g>
    </g>
  </g>

  <!-- Git Icon (8) -->
  <g transform="translate(516, 265)">
    <g class="icon-group g-8">
      <g class="icon-content">
        <rect class="icon-bg" x="-24" y="-24" width="48" height="48" rx="12" />
        <g transform="scale(1.1)">
          <rect x="-9" y="-9" width="18" height="18" rx="2.5" fill="#F05032" transform="rotate(45)" />
          <path d="M-2,5.5 L-2,-4 M-2,0 Q0.5,-2 3,-2" stroke="#FFFFFF" stroke-width="1.6" stroke-linecap="round" fill="none" />
          <circle cx="-2" cy="5.5" r="2" fill="#FFFFFF" />
          <circle cx="-2" cy="-4" r="2" fill="#FFFFFF" />
          <circle cx="3" cy="-2" r="2" fill="#FFFFFF" />
        </g>
      </g>
    </g>
  </g>

  <!-- Figma Icon (9) -->
  <g transform="translate(574, 265)">
    <g class="icon-group g-9">
      <g class="icon-content">
        <rect class="icon-bg" x="-24" y="-24" width="48" height="48" rx="12" />
        <g transform="scale(0.95)">
          <path d="M-9,-9 a4.5,4.5 0 0,1 4.5,-4.5 h4.5 v9 h-4.5 a4.5,4.5 0 0,1 -4.5,-4.5 z" fill="#F24E1E" />
          <circle cx="2.25" cy="-9" r="4.5" fill="#FF7262" />
          <path d="M-9,0 a4.5,4.5 0 0,1 4.5,-4.5 h4.5 v9 h-4.5 a4.5,4.5 0 0,1 -4.5,-4.5 z" fill="#A259FF" />
          <circle cx="2.25" cy="0" r="4.5" fill="#1ABC9C" />
          <path d="M-9,9 a4.5,4.5 0 0,1 4.5,-4.5 h4.5 v4.5 a4.5,4.5 0 0,1 -4.5,4.5 a4.5,4.5 0 0,1 -4.5,-4.5 z" fill="#0ACF83" />
        </g>
      </g>
    </g>
  </g>

  <!-- Google Ads Icon (10) -->
  <g transform="translate(632, 265)">
    <g class="icon-group g-10">
      <g class="icon-content">
        <rect class="icon-bg" x="-24" y="-24" width="48" height="48" rx="12" />
        <g transform="scale(0.11) translate(-123, -112)">
          <path fill="#3C8BD9" d="M85.9,28.6c2.4-6.3,5.7-12.1,10.6-16.8c19.6-19.1,52-14.3,65.3,9.7c10,18.2,20.6,36,30.9,54c17.2,29.9,34.6,59.8,51.6,89.8c14.3,25.1-1.2,56.8-29.6,61.1c-17.4,2.6-33.7-5.4-42.7-21c-15.1-26.3-30.3-52.6-45.4-78.8c-0.3-0.6-0.7-1.1-1.1-1.6c-1.6-1.3-2.3-3.2-3.3-4.9c-6.7-11.8-13.6-23.5-20.3-35.2c-4.3-7.6-8.8-15.1-13.1-22.7c-3.9-6.8-5.7-14.2-5.5-22C83.6,36.2,84.1,32.2,85.9,28.6"/>
          <path fill="#FABC04" d="M85.9,28.6c-0.9,3.6-1.7,7.2-1.9,11c-0.3,8.4,1.8,16.2,6,23.5C101,82,112,101,122.9,120c1,1.7,1.8,3.4,2.8,5c-6,10.4-12,20.7-18.1,31.1c-8.4,14.5-16.8,29.1-25.3,43.6c-0.4,0-0.5-0.2-0.6-0.5c-0.1-0.8,0.2-1.5,0.4-2.3c4.1-15,0.7-28.3-9.6-39.7c-6.3-6.9-14.3-10.8-23.5-12.1c-12-1.7-22.6,1.4-32.1,8.9c-1.7,1.3-2.8,3.2-4.8,4.2c-0.4,0-0.6-0.2-0.7-0.5c4.8-8.3,9.5-16.6,14.3-24.9C45.5,98.4,65.3,64,85.2,29.7C85.4,29.3,85.7,29,85.9,28.6"/>
          <path fill="#34A852" d="M11.8,158c1.9-1.7,3.7-3.5,5.7-5.1c24.3-19.2,60.8-5.3,66.1,25.1c1.3,7.3,0.6,14.3-1.6,21.3c-0.1,0.6-0.2,1.1-0.4,1.7c-0.9,1.6-1.7,3.3-2.7,4.9c-8.9,14.7-22,22-39.2,20.9C20,225.4,4.5,210.6,1.8,191c-1.3-9.5,0.6-18.4,5.5-26.6c1-1.8,2.2-3.4,3.3-5.2C11.1,158.8,10.9,158,11.8,158"/>
        </g>
      </g>
    </g>
  </g>

  <!-- Meta Icon (11) -->
  <g transform="translate(690, 265)">
    <g class="icon-group g-11">
      <g class="icon-content">
        <rect class="icon-bg" x="-24" y="-24" width="48" height="48" rx="12" />
        <g transform="scale(1.85) translate(-8, -8)">
          <path fill-rule="evenodd" d="M8.217 5.243C9.145 3.988 10.171 3 11.483 3 13.96 3 16 6.153 16.001 9.907c0 2.29-.986 3.725-2.757 3.725-1.543 0-2.395-.866-3.924-3.424l-.667-1.123-.118-.197a55 55 0 0 0-.53-.877l-1.178 2.08c-1.673 2.925-2.615 3.541-3.923 3.541C1.086 13.632 0 12.217 0 9.973 0 6.388 1.995 3 4.598 3q.477-.001.924.122c.31.086.611.22.913.407.577.359 1.154.915 1.782 1.714m1.516 2.224q-.378-.615-.727-1.133L9 6.326c.845-1.305 1.543-1.954 2.372-1.954 1.723 0 3.102 2.537 3.102 5.653 0 1.188-.39 1.877-1.195 1.877-.773 0-1.142-.51-2.61-2.87zM4.846 4.756c.725.1 1.385.634 2.34 2.001A212 212 0 0 0 5.551 9.3c-1.357 2.126-1.826 2.603-2.581 2.603-.777 0-1.24-.682-1.24-1.9 0-2.602 1.298-5.264 2.846-5.264q.137 0 .27.018" fill="url(#meta-grad)" />
        </g>
      </g>
    </g>
  </g>

</svg>
